HIERARCHY
ROOT hip
{
	OFFSET 0.000000 0.000000 0.000000 
	CHANNELS 6 Xposition Yposition Zposition Xrotation Zrotation Yrotation
	JOINT abdomen
	{
		OFFSET 0.000000 3.402643 0.000000 
		CHANNELS 3 Xrotation Zrotation Yrotation
		JOINT chest
		{
			OFFSET 0.000000 8.438565 -0.680529 
			CHANNELS 3 Xrotation Zrotation Yrotation
			JOINT neck
			{
				OFFSET 0.000000 10.207942 -0.272212 
				CHANNELS 3 Xrotation Zrotation Yrotation
				JOINT head
				{
					OFFSET 0.000000 3.130431 0.000000 
					CHANNELS 3 Xrotation Zrotation Yrotation
					End Site
					{
						OFFSET 0.000000 3.130435 0.000000 
					}
				}
			}
			JOINT lCollar
			{
				OFFSET 3.470700 6.669187 -0.816635 
				CHANNELS 3 Yrotation Zrotation Xrotation
				JOINT lShldr
				{
					OFFSET 3.198488 0.000000 0.000000 
					CHANNELS 3 Zrotation Yrotation Xrotation
					JOINT lForeArm
					{
						OFFSET 10.139888 0.000000 0.000000 
						CHANNELS 3 Yrotation Zrotation Xrotation
						JOINT lHand
						{
							OFFSET 8.370511 0.000000 0.000000 
							CHANNELS 3 Zrotation Yrotation Xrotation
							End Site
							{
								OFFSET 4.083176 0.000000 0.000000 
							}
						}
					}
				}
			}
			JOINT rCollar
			{
				OFFSET -3.470700 6.669187 -0.816635 
				CHANNELS 3 Yrotation Zrotation Xrotation
				JOINT rShldr
				{
					OFFSET -3.198488 0.000000 0.000000 
					CHANNELS 3 Zrotation Yrotation Xrotation
					JOINT rForeArm
					{
						OFFSET -10.139888 0.000000 0.000000 
						CHANNELS 3 Yrotation Zrotation Xrotation
						JOINT rHand
						{
							OFFSET -8.370511 0.000000 0.000000 
							CHANNELS 3 Zrotation Yrotation Xrotation
							End Site
							{
								OFFSET -4.083176 0.000000 0.000000 
							}
						}
					}
				}
			}
		}
	}
	JOINT lThigh
	{
		OFFSET 5.308129 -1.633274 1.361059 
		CHANNELS 3 Xrotation Zrotation Yrotation
		JOINT lShin
		{
			OFFSET -2.041588 -20.007561 0.000000 
			CHANNELS 3 Xrotation Zrotation Yrotation
			JOINT lFoot
			{
				OFFSET 0.000000 -19.190928 -1.224953 
				CHANNELS 3 Xrotation Yrotation Zrotation
				End Site
				{
					OFFSET 0.000000 -2.449906 4.627600 
				}
			}
		}
	}
	JOINT rThigh
	{
		OFFSET -5.308129 -1.633274 1.361059 
		CHANNELS 3 Xrotation Zrotation Yrotation
		JOINT rShin
		{
			OFFSET 2.041588 -20.007561 0.000000 
			CHANNELS 3 Xrotation Zrotation Yrotation
			JOINT rFoot
			{
				OFFSET 0.000000 -19.190928 -1.224953 
				CHANNELS 3 Xrotation Yrotation Zrotation
				End Site
				{
					OFFSET 0.000000 -2.449906 4.627600 
				}
			}
		}
	}
}
MOTION
Frames: 19
Frame Time: 0.033333
5.133845 43.337795 -80.508583 3.681641 0.166016 40.771481 22.294920 0.781250 0.742188 -5.800781 -2.900391 0.761225 -13.525391 3.544922 -21.250000 7.089843 5.166015 -20.449219 5.283203 9.667969 0.458984 -79.345703 -29.648438 65.908203 -66.542969 -2.714844 -23.818068 11.513672 7.333984 1.143825 -7.382812 -1.689453 -0.048540 75.341797 28.818357 17.275391 67.539063 3.583984 -50.097652 -28.994139 -5.361329 2.518619 -11.405186 14.976731 20.592402 47.001747 -0.421032 -2.909311 -30.280579 2.460417 -5.749046 -31.796640 -28.553427 -32.798885 50.004761 -0.000014 2.696141 -7.006172 -1.563757 6.791057 
5.197885 43.243534 -80.024155 3.681641 0.351563 39.540985 22.119143 0.302734 0.449270 -5.800781 -2.724609 0.585938 -13.564452 3.437500 -20.194729 7.089843 5.341796 -19.394531 5.312500 9.472655 0.302734 -80.341805 -31.259764 70.185547 -65.859375 -2.841797 -25.263672 13.476563 6.699219 1.358563 -7.558594 -2.226563 0.048828 75.175781 29.658201 17.011721 67.724609 3.544922 -48.740837 -28.789063 -6.367188 3.027344 -10.018681 14.879507 20.715569 46.493942 -0.726232 -2.689061 -30.097143 3.705986 -5.072697 -32.166328 -27.823624 -35.630028 51.767075 -0.185662 3.039658 -9.861927 -7.779652 5.200216 
5.232287 43.129986 -79.412582 3.681641 0.351563 37.783176 21.777342 0.175781 0.234375 -5.625000 -2.548828 0.410156 -13.603516 3.154297 -19.120556 7.441407 5.517578 -18.329140 5.283204 9.843751 0.437784 -81.865234 -32.939457 73.988831 -65.986328 -2.773438 -26.659687 16.425781 5.185547 1.338773 -7.900392 -3.476563 0.039063 76.113289 31.416019 16.714075 68.681633 3.496094 -47.500000 -29.541016 -7.509766 3.778021 -8.943666 14.923424 20.949818 46.825367 -0.423583 -2.921158 -29.984676 5.559593 -4.157639 -32.517700 -26.505459 -35.878845 52.810776 -0.334051 3.005932 -12.590899 -11.245427 4.278442 
5.267036 43.027241 -78.676659 3.339844 0.527344 35.322224 21.425781 0.390625 0.107422 -5.273438 -3.076172 0.058594 -13.671875 3.251953 -17.548830 7.617188 5.166016 -16.748049 5.820313 10.019532 0.332031 -82.753906 -34.082027 74.921875 -66.562500 -2.900391 -28.457029 17.431641 4.326172 1.093750 -8.242188 -4.199219 0.098371 77.021484 33.613285 17.412111 68.496094 3.505859 -45.303329 -30.136717 -5.595703 2.899438 -7.381746 15.362041 21.087879 47.024563 -0.726211 -2.881360 -29.175016 7.884753 -2.549252 -32.839298 -24.153051 -32.858231 53.701458 -0.371249 2.687417 -14.617240 -11.725219 3.827947 
5.280869 42.892422 -77.800224 2.460938 0.527344 32.343800 21.601563 0.986328 -0.107254 -5.458984 -3.603516 -0.108036 -12.851562 3.203125 -15.790327 7.792969 5.166016 -14.989356 5.966797 10.039063 0.506110 -83.525391 -34.716797 74.335938 -67.177734 -3.046875 -29.648441 17.568359 3.496094 0.908800 -8.574219 -4.746094 0.166016 76.787109 35.703125 17.495935 70.566406 3.369141 -44.609947 -30.781252 -5.117188 2.685547 -5.478894 16.626175 22.622334 48.074764 -0.485094 -2.988880 -27.461977 9.114208 -2.236644 -32.314487 -21.543165 -29.905067 54.759304 -0.195795 2.993784 -16.647774 -11.974216 3.102363 
5.226360 42.726917 -76.817062 1.230469 0.351563 28.828163 21.787109 1.494141 0.010020 -4.931641 -3.955079 -0.273438 -12.919922 2.802734 -13.827648 8.681640 5.166015 -13.212890 6.328125 9.697266 0.449219 -84.638672 -36.181641 73.994141 -67.568359 -2.851563 -28.651857 18.759766 2.294922 0.654297 -9.462890 -4.746094 0.088699 76.503906 39.140625 17.343752 73.017578 3.369141 -44.638676 -31.923830 -5.507813 3.037110 -3.711457 19.295818 25.199928 51.237133 -0.309755 -3.068051 -23.725710 9.497605 -2.697247 -31.766745 -18.729370 -27.628716 56.147606 -0.371120 3.131980 -18.383738 -11.263208 2.934428 
5.092469 42.572105 -75.791748 0.000000 0.000000 25.136721 21.787107 2.216797 0.009766 -4.228516 -4.316406 -0.625000 -12.812501 2.773438 -11.718750 9.208984 4.814453 -10.917150 6.679688 10.048828 0.349859 -85.810547 -37.607426 71.357422 -68.994141 -2.939453 -30.663565 19.267578 1.992187 0.458984 -10.507813 -4.609375 0.205863 76.689453 43.466797 18.408203 74.189453 3.339844 -42.227127 -32.148438 -4.697266 2.538263 -3.546968 22.435677 26.604383 56.701767 0.021601 -3.162247 -17.646103 10.410846 -3.672678 -30.897774 -15.770673 -26.092819 57.197857 -0.361115 3.018777 -20.114656 -10.372284 3.065202 
4.935451 42.410095 -74.828125 -1.064453 -0.712891 20.742188 21.796875 2.988281 -0.165507 -4.580078 -5.019599 -0.977398 -11.484374 3.486328 -9.130265 8.857422 3.935547 -8.466797 6.142578 10.390625 0.437692 -86.425781 -38.222660 67.620911 -70.400391 -3.105469 -32.626953 18.701172 1.044922 0.156430 -10.683593 -4.775391 0.157063 77.011719 46.865234 18.815722 76.279297 3.222656 -39.541565 -31.923830 -5.507813 3.037110 -5.478870 26.121922 26.981340 64.218719 0.527793 -3.587524 -10.026388 12.663228 -4.768886 -30.203671 -12.625492 -24.344772 57.910072 -0.371121 3.045227 -22.087305 -8.876009 3.458903 
4.870715 42.251217 -73.958427 -1.767578 -1.240234 15.810546 21.982422 3.330078 -0.077558 -5.107422 -5.537109 -1.163052 -9.980468 3.701171 -6.151713 8.330078 3.232422 -5.663512 5.605469 10.556642 0.515789 -86.513672 -39.658207 64.896103 -71.289063 -2.958984 -31.152063 19.550781 -0.908203 -0.400545 -11.367187 -5.507813 0.137656 77.939453 50.722656 19.150389 78.564453 3.242188 -37.705631 -33.457031 -3.769531 2.109375 -8.829210 28.715775 26.175636 72.646294 1.004684 -3.631835 -6.378508 14.714658 -5.177918 -29.593649 -10.278298 -22.185429 58.606197 -0.528681 3.136633 -23.608421 -6.874199 3.787441 
4.925688 42.090359 -73.171471 -2.119128 -1.416007 10.536932 22.158203 3.535156 -0.205078 -5.468750 -5.888671 -1.338893 -8.994141 3.378906 -3.320313 8.330078 2.529297 -3.026913 5.605469 10.556642 0.515789 -87.197266 -41.689457 61.298824 -72.109375 -3.007812 -29.853004 18.330078 -2.822266 -1.005859 -11.855470 -6.435547 0.244141 78.085938 55.292969 19.070528 80.996094 3.173828 -35.087894 -33.593750 -3.505860 1.952528 -12.500331 29.834389 25.383390 79.844109 1.343008 -3.707753 -8.095474 14.394380 -4.732117 -29.441650 -8.212063 -19.133392 59.506546 -0.390568 2.941593 -24.936705 -4.846082 5.034649 
5.069224 41.978207 -72.453674 -2.285156 -1.582031 5.449218 22.343748 3.925781 -0.292969 -5.644531 -5.888671 -1.514674 -8.691405 3.076172 -0.302210 8.330079 1.650391 -0.038781 5.781250 11.083985 0.427810 -88.701172 -44.013672 58.046875 -72.958984 -2.929688 -28.622547 17.880857 -5.615234 -1.660156 -12.695313 -7.373047 0.292969 78.007813 60.546875 18.330078 84.541016 3.164063 -32.890625 -32.480469 -5.566406 3.134765 -16.347067 30.273922 24.426310 84.031235 1.592191 -3.870114 -10.513312 9.339461 -5.420673 -29.296497 -6.660029 -16.825319 60.009747 -0.537131 3.231384 -25.899204 -2.619055 5.884655 
5.267851 41.912426 -71.767136 -2.646484 -2.285156 0.165626 22.880859 4.472656 -0.341797 -5.810547 -5.712891 -1.865235 -8.554688 2.763672 2.539063 8.154297 0.771484 2.763672 5.410157 11.611329 0.437488 -88.867188 -46.914059 54.707027 -75.224609 -2.978516 -28.105469 19.941404 -7.392578 -2.617188 -13.740234 -7.929688 0.196660 77.939453 65.634773 17.460936 86.992188 3.037110 -29.658205 -31.689455 -3.925781 2.119140 -20.741381 30.678730 23.408712 85.605515 1.924204 -3.775136 -12.611172 4.088183 -6.361881 -28.588703 -4.900220 -14.712465 60.185307 -0.547029 3.233510 -26.686361 -0.644048 6.803995 
5.529704 41.848263 -71.057945 -2.822266 -2.470703 -4.932098 23.593750 4.687500 -0.468750 -6.171875 -5.888671 -2.050781 -8.242188 3.164063 5.507813 8.505860 -0.283203 5.585894 5.009766 12.324220 0.613150 -88.339844 -49.707031 49.973019 -77.392578 -2.851563 -27.900391 19.082031 -7.958984 -2.578125 -14.248048 -8.144532 0.244141 75.664063 69.550781 14.501337 90.634766 2.890625 -28.643070 -31.230467 -3.056641 1.532682 -25.272535 30.417067 22.220421 85.111366 1.768333 -3.558412 -15.306954 1.651603 -6.435915 -28.042662 -4.032290 -12.067875 60.540466 -0.567521 2.870049 -27.719507 2.041423 8.662173 
5.872681 41.778183 -70.321426 -2.988281 -2.646484 -10.029749 24.121094 4.599609 -0.859375 -6.337891 -5.712891 -2.402344 -7.558594 2.851563 8.349609 8.154297 -1.337891 8.388444 4.824219 12.666015 0.625000 -87.792969 -52.460938 46.103516 -78.417969 -2.763672 -24.921875 19.189453 -9.033203 -3.105469 -14.746092 -8.535156 0.274887 70.986328 72.871094 8.740233 94.501953 2.958984 -27.929689 -31.230469 -3.232422 1.533203 -28.964579 29.930777 21.482372 81.936714 1.758960 -3.788308 -17.436180 2.533619 -6.552834 -27.672781 -3.680763 -10.564479 60.887241 -0.722738 3.145852 -28.869431 5.114651 10.043723 
6.275979 41.701473 -69.520531 -2.822266 -2.646484 -15.293419 24.296877 4.638672 -1.024601 -5.810546 -4.833984 -2.744964 -8.261718 1.826172 11.074471 8.154297 -1.865234 11.025391 5.546875 12.324220 0.505728 -86.865234 -56.269531 43.146179 -80.136719 -2.617188 -21.415567 21.220703 -9.687500 -3.515625 -15.761719 -9.140625 0.304286 65.146484 76.425781 2.402344 98.037109 2.753906 -25.332033 -32.294922 -2.939453 1.601063 -32.694813 30.008753 19.952192 77.177750 1.251673 -4.011447 -17.927708 3.808912 -6.025494 -27.731291 -4.052156 -8.772765 61.422813 -0.400379 3.177509 -30.162819 8.343457 12.476604 
6.749126 41.602100 -68.679070 -2.470703 -2.822286 -20.752293 24.296875 4.677734 -1.201172 -5.283204 -4.658203 -2.744141 -9.316406 1.152344 13.769728 8.505860 -2.041015 13.661762 6.552734 12.548828 0.595703 -85.488281 -60.273434 39.874336 -82.011719 -2.568359 -20.263672 21.425781 -9.794923 -3.691406 -16.806643 -9.023437 0.351563 54.140625 80.039070 -8.857423 101.972656 2.851563 -23.955076 -33.974606 -5.908203 3.446261 -35.605087 30.067762 18.002205 70.883324 0.930645 -3.799054 -17.752430 3.952791 -5.957454 -28.073837 -4.052242 -6.697556 61.940697 -0.722596 3.199639 -30.680031 11.637473 14.504078 
7.268414 41.485413 -67.771469 -1.943359 -2.998047 -26.553246 24.472656 4.853516 -1.151518 -5.810546 -4.658204 -2.920715 -8.779298 0.332031 16.826172 8.330078 -2.568359 16.474171 6.503906 13.613281 0.632467 -82.373047 -62.695309 34.434681 -83.593750 -2.568359 -19.325733 21.679688 -10.595703 -3.888514 -17.128906 -9.414063 0.362926 41.171875 80.566406 -22.490234 105.410149 2.724609 -23.623049 -35.175781 -6.337891 3.935546 -37.556217 30.485149 14.702134 63.513184 0.423592 -3.453166 -15.661236 2.707886 -6.459064 -28.351240 -4.393434 -4.536431 62.475311 -0.557622 3.144043 -31.434031 15.030169 16.948595 
7.830589 41.361172 -66.801582 -1.416016 -2.988281 -32.529808 24.658201 5.156250 -0.898438 -6.689453 -4.306641 -2.754640 -8.232422 -1.220703 19.580080 7.626953 -2.744141 19.101563 6.435547 15.029297 0.683594 -78.720703 -64.482422 28.398436 -85.683594 -2.412109 -18.066406 22.050781 -10.517579 -4.072266 -17.031248 -11.083984 0.421799 33.671871 80.273438 -32.519535 108.671875 2.861328 -23.984861 -36.025391 -4.072266 2.606729 -38.202595 30.966209 10.190689 56.148602 -0.062928 -3.362702 -12.360777 0.559890 -6.968245 -29.293814 -4.745931 -3.126256 62.819027 -0.703040 3.248163 -31.821533 19.943521 19.495070 
8.447623 41.248898 -65.717560 -0.878906 -2.998047 -38.857674 25.019529 5.449218 -0.644531 -6.689453 -3.955078 -2.578799 -8.906251 -2.597656 22.333986 7.099609 -2.744141 21.552732 7.421875 15.781251 0.644531 -74.980469 -66.767578 22.910158 -87.363281 -2.353516 -14.355468 22.011717 -10.224608 -3.906250 -17.636721 -11.914063 0.556641 25.654295 80.917969 -43.554684 112.460938 2.880860 -24.121096 -37.021484 -3.603516 2.362667 -38.076233 31.562529 5.510475 49.831150 -0.432778 -3.063432 -8.976515 -2.196077 -7.232850 -30.166798 -5.457587 -1.789044 62.993092 -0.888571 3.146650 -32.444412 24.752270 22.467373 
